# xmcd CD database file
#
# Track frame offsets:
#	150
#	10452
#	30744
#	47823
#	67116
#	84114
#	100329
#	116140
#	133193
#	149706
#	167488
#	186052
#	199702
#	217402
#	232996
#
# Disc length: 3355 seconds
#
# Revision: 1
# Processed by: cddbd v1.5.1PL0 Copyright (c) Steve Scherf et al.
# Submitted via: CDex 1.51
#
DISCID=e00d190f
DTITLE=Zezé di Camargo and Luciano - 2005 - A Minha Hitória
DYEAR=2005
DGENRE=Sertanejo
TTITLE0=A minha história
TTITLE1=Fui eu
TTITLE2=Fera mansa
TTITLE3=Átomos
TTITLE4=Foi
TTITLE5=Apaixonado por você
TTITLE6=Meu destino te escolheu
TTITLE7=Meu coração
TTITLE8=Fica de uma vez
TTITLE9=Mil anos de amor
TTITLE10=Vai dar tudo certo
TTITLE11=Sou parada dura
TTITLE12=Coração de mulher
TTITLE13=Paguei pra ver
TTITLE14=Agora agüenta nóis
EXTD=by Tosh with love to Célia YEAR: 2005
EXTT0=
EXTT1=
EXTT2=
EXTT3=
EXTT4=
EXTT5=
EXTT6=
EXTT7=
EXTT8=
EXTT9=
EXTT10=
EXTT11=
EXTT12=
EXTT13=
EXTT14=
PLAYORDER=
